<svg width="17" height="13" viewBox="0 0 17 13" fill="none" xmlns="http://www.w3.org/2000/svg">
<path d="M0.76 12.2C0.706667 11.8267 0.666667 11.44 0.64 11.04C0.613333 10.64 0.6 10.3467 0.6 10.16C0.6 8.37333 0.92 6.68 1.56 5.08C2.2 3.45333 2.98667 2.08 3.92 0.959999L7.96 1.88C7.45333 3.02667 7.04 4.33333 6.72 5.8C6.42667 7.24 6.28 8.61333 6.28 9.92C6.28 9.97333 6.28 10.0933 6.28 10.28C6.28 10.44 6.28 10.64 6.28 10.88C6.30667 11.0933 6.32 11.32 6.32 11.56C6.34667 11.8 6.37333 12.0133 6.4 12.2H0.76ZM9.36 12.2C9.30667 11.8267 9.26667 11.44 9.24 11.04C9.21333 10.64 9.2 10.3467 9.2 10.16C9.2 8.37333 9.52 6.68 10.16 5.08C10.8 3.45333 11.5867 2.08 12.52 0.959999L16.56 1.88C16.0533 3.02667 15.64 4.33333 15.32 5.8C15.0267 7.24 14.88 8.61333 14.88 9.92C14.88 9.97333 14.88 10.0933 14.88 10.28C14.88 10.44 14.88 10.64 14.88 10.88C14.9067 11.0933 14.92 11.32 14.92 11.56C14.9467 11.8 14.9733 12.0133 15 12.2H9.36Z" fill="white"/>
</svg>
