<svg width="14" height="23" viewBox="0 0 14 23" fill="none" xmlns="http://www.w3.org/2000/svg">
<path d="M5.525 19.75C4.30833 19.65 3.31667 19.4667 2.55 19.2C1.8 18.9167 1.24167 18.6833 0.875 18.5L1.95 15.625C2.53333 15.9083 3.225 16.1667 4.025 16.4C4.84167 16.6333 5.7 16.75 6.6 16.75C7.61667 16.75 8.30833 16.6167 8.675 16.35C9.05833 16.0667 9.25 15.675 9.25 15.175C9.25 14.8583 9.175 14.5917 9.025 14.375C8.875 14.1417 8.65833 13.9333 8.375 13.75C8.09167 13.5667 7.73333 13.3917 7.3 13.225C6.86667 13.0417 6.36667 12.85 5.8 12.65C5.25 12.45 4.70833 12.2333 4.175 12C3.65833 11.75 3.18333 11.45 2.75 11.1C2.33333 10.75 1.99167 10.325 1.725 9.825C1.475 9.30833 1.35 8.69167 1.35 7.975C1.35 7.425 1.425 6.9 1.575 6.4C1.74167 5.88333 1.99167 5.41667 2.325 5C2.65833 4.58333 3.09167 4.23333 3.625 3.95C4.15833 3.65 4.79167 3.43333 5.525 3.3V0.599999H8.675V3.2C9.54167 3.28333 10.2833 3.40833 10.9 3.575C11.5333 3.74167 12.0333 3.90833 12.4 4.075L11.625 7.075C11.075 6.84167 10.4333 6.64167 9.7 6.475C8.98333 6.30833 8.225 6.225 7.425 6.225C6.625 6.225 6.05 6.35833 5.7 6.625C5.35 6.89167 5.175 7.24167 5.175 7.675C5.175 7.94167 5.225 8.175 5.325 8.375C5.44167 8.55833 5.61667 8.725 5.85 8.875C6.08333 9.025 6.36667 9.175 6.7 9.325C7.05 9.45833 7.46667 9.60833 7.95 9.775C8.68333 10.0417 9.35833 10.3333 9.975 10.65C10.6083 10.9667 11.15 11.3333 11.6 11.75C12.0667 12.15 12.425 12.625 12.675 13.175C12.9417 13.725 13.075 14.3667 13.075 15.1C13.075 15.6 13 16.1 12.85 16.6C12.7 17.0833 12.45 17.5333 12.1 17.95C11.75 18.3667 11.2917 18.725 10.725 19.025C10.175 19.325 9.49167 19.5417 8.675 19.675V22.725H5.525V19.75Z" fill="#F54646"/>
</svg>
