<svg width="195" height="67" viewBox="0 0 195 67" fill="none" xmlns="http://www.w3.org/2000/svg">
<path d="M15.6333 6.16068L24.3039 1.1547L32.9745 6.16068V16.1726L24.3039 21.1786L15.6333 16.1726V6.16068Z" fill="white" stroke="#483875" stroke-width="2"/>
<path d="M15.6333 10.5396L24.3039 5.53361L32.9745 10.5396V20.5516L24.3039 25.5575L15.6333 20.5516V10.5396Z" fill="white" stroke="#483875" stroke-width="2"/>
<path d="M12.2201 19.955L24.3039 12.9784L36.3877 19.955V33.9081L24.3039 40.8847L12.2201 33.9081V19.955Z" fill="white" stroke="#483875" stroke-width="2"/>
<path d="M24.3889 12L30.0181 19.5V34.5L24.3889 42L18.7597 34.5V19.5L24.3889 12Z" fill="#F54646"/>
<rect y="59.9932" width="48.1699" height="7.00654" rx="1" fill="#483875"/>
<rect x="3.94118" y="60.8691" width="40.2876" height="5.2549" fill="white"/>
<rect x="9.63399" y="61.7451" width="22.3333" height="3.50327" fill="#F54646"/>
<rect x="13.1373" y="62.1831" width="0.437909" height="2.62745" fill="white"/>
<rect x="16.2026" y="62.1831" width="0.437909" height="2.62745" fill="white"/>
<rect x="19.268" y="62.1831" width="0.437909" height="2.62745" fill="white"/>
<rect x="22.3333" y="62.1831" width="0.437909" height="2.62745" fill="white"/>
<rect x="25.3987" y="62.1831" width="0.437909" height="2.62745" fill="white"/>
<rect x="28.4641" y="62.1831" width="0.437909" height="2.62745" fill="white"/>
<circle cx="38.098" cy="63.4969" r="0.875817" fill="#483875"/>
<path d="M11.1667 57.8037H37.4412L44.2288 59.9933H3.94118L11.1667 57.8037Z" fill="#483875"/>
<rect y="50.3594" width="48.1699" height="7.00654" rx="1" fill="#483875"/>
<rect x="3.94118" y="51.2354" width="40.2876" height="5.2549" fill="white"/>
<rect x="9.63399" y="52.1113" width="22.3333" height="3.50327" fill="#F54646"/>
<rect x="13.1373" y="52.5493" width="0.437909" height="2.62745" fill="white"/>
<rect x="16.2026" y="52.5493" width="0.437909" height="2.62745" fill="white"/>
<rect x="19.268" y="52.5493" width="0.437909" height="2.62745" fill="white"/>
<rect x="22.3333" y="52.5493" width="0.437909" height="2.62745" fill="white"/>
<rect x="25.3987" y="52.5493" width="0.437909" height="2.62745" fill="white"/>
<rect x="28.4641" y="52.5493" width="0.437909" height="2.62745" fill="white"/>
<circle cx="38.098" cy="53.8631" r="0.875817" fill="#483875"/>
<path d="M11.1667 48.1699H37.4412L44.2288 50.3595H3.94118L11.1667 48.1699Z" fill="#483875"/>
<rect y="40.7251" width="48.1699" height="7.00654" rx="1" fill="#483875"/>
<rect x="3.94118" y="41.6011" width="40.2876" height="5.2549" fill="white"/>
<rect x="9.63399" y="42.4771" width="22.3333" height="3.50327" fill="#F54646"/>
<rect x="13.1373" y="42.915" width="0.437909" height="2.62745" fill="white"/>
<rect x="16.2026" y="42.915" width="0.437909" height="2.62745" fill="white"/>
<rect x="19.268" y="42.915" width="0.437909" height="2.62745" fill="white"/>
<rect x="22.3333" y="42.915" width="0.437909" height="2.62745" fill="white"/>
<rect x="25.3987" y="42.915" width="0.437909" height="2.62745" fill="white"/>
<rect x="28.4641" y="42.915" width="0.437909" height="2.62745" fill="white"/>
<circle cx="38.098" cy="44.2288" r="0.875817" fill="#483875"/>
<path d="M11.1667 33.7188H37.4412L44.2288 40.7253H3.94118L11.1667 33.7188Z" fill="#483875"/>
<rect x="19.8889" y="22.668" width="2.71429" height="9.01845" rx="1.35715" fill="white"/>
<rect x="25.4926" y="26.6079" width="1.22581" height="2.88941" transform="rotate(90 25.4926 26.6079)" fill="white"/>
<rect x="25.4926" y="22.668" width="2.71429" height="9.01845" rx="1.35715" fill="white"/>
<rect x="27.4406" y="19.15" width="1.49436" height="5.08307" rx="0.747178" fill="white" stroke="#F54646" stroke-width="0.3"/>
<rect x="24.5248" y="19.15" width="1.49436" height="5.08307" rx="0.747178" fill="white" stroke="#F54646" stroke-width="0.3"/>
<rect x="27.9635" y="21.2432" width="0.672884" height="2.46724" transform="rotate(90 27.9635 21.2432)" fill="white"/>
<rect x="1.31372" y="47.7319" width="0.875817" height="2.62745" fill="#483875"/>
<rect x="1.31372" y="57.3662" width="0.875817" height="2.62745" fill="#483875"/>
<rect x="45.9804" y="57.3662" width="0.875817" height="2.62745" fill="#483875"/>
<rect x="45.9804" y="47.7319" width="0.875817" height="2.62745" fill="#483875"/>
<path d="M65.3 32V11.99H70.16V20.09H77.51V11.99H82.34V32H77.51V24.05H70.16V32H65.3ZM95.5088 32.42C93.5288 32.42 91.8088 32.05 90.3488 31.31C88.8888 30.55 87.7488 29.4 86.9288 27.86C86.1288 26.32 85.7288 24.37 85.7288 22.01C85.7288 18.59 86.5888 16 88.3088 14.24C90.0288 12.48 92.4288 11.6 95.5088 11.6C97.4888 11.6 99.2088 11.98 100.669 12.74C102.149 13.48 103.289 14.61 104.089 16.13C104.889 17.65 105.289 19.6 105.289 21.98C105.289 25.42 104.429 28.02 102.709 29.78C101.009 31.54 98.6088 32.42 95.5088 32.42ZM95.5088 28.43C96.5288 28.43 97.3888 28.22 98.0888 27.8C98.8088 27.38 99.3488 26.7 99.7088 25.76C100.089 24.8 100.279 23.54 100.279 21.98C100.279 20.4 100.089 19.14 99.7088 18.2C99.3488 17.26 98.8088 16.59 98.0888 16.19C97.3888 15.77 96.5288 15.56 95.5088 15.56C94.4888 15.56 93.6288 15.77 92.9288 16.19C92.2288 16.61 91.6888 17.29 91.3088 18.23C90.9488 19.17 90.7688 20.44 90.7688 22.04C90.7688 23.62 90.9488 24.88 91.3088 25.82C91.6888 26.74 92.2288 27.41 92.9288 27.83C93.6288 28.23 94.4888 28.43 95.5088 28.43ZM115.438 32.42C114.418 32.42 113.498 32.37 112.678 32.27C111.858 32.17 111.098 32.02 110.398 31.82C109.698 31.62 109.018 31.36 108.358 31.04V26.42C109.278 27.16 110.318 27.72 111.478 28.1C112.638 28.48 113.738 28.67 114.778 28.67C115.698 28.67 116.398 28.5 116.878 28.16C117.378 27.8 117.628 27.26 117.628 26.54C117.628 26 117.398 25.57 116.938 25.25C116.498 24.91 115.908 24.62 115.168 24.38C114.428 24.12 113.598 23.83 112.678 23.51C112.098 23.33 111.528 23.1 110.968 22.82C110.408 22.54 109.908 22.19 109.468 21.77C109.028 21.33 108.678 20.8 108.418 20.18C108.158 19.56 108.028 18.8 108.028 17.9C108.028 17.08 108.178 16.29 108.478 15.53C108.778 14.77 109.238 14.09 109.858 13.49C110.498 12.89 111.308 12.42 112.288 12.08C113.268 11.72 114.418 11.54 115.738 11.54C116.558 11.54 117.278 11.59 117.898 11.69C118.538 11.79 119.148 11.94 119.728 12.14C120.308 12.32 120.898 12.56 121.498 12.86V17.54C121.038 17.16 120.518 16.81 119.938 16.49C119.378 16.15 118.788 15.87 118.168 15.65C117.548 15.43 116.898 15.31 116.218 15.29C115.618 15.27 115.068 15.33 114.568 15.47C114.068 15.61 113.678 15.84 113.398 16.16C113.118 16.46 112.978 16.85 112.978 17.33C112.978 17.89 113.148 18.33 113.488 18.65C113.828 18.97 114.298 19.24 114.898 19.46C115.498 19.66 116.168 19.88 116.908 20.12C117.728 20.36 118.478 20.63 119.158 20.93C119.858 21.21 120.468 21.57 120.988 22.01C121.508 22.45 121.908 22.99 122.188 23.63C122.468 24.27 122.608 25.04 122.608 25.94C122.608 27.14 122.328 28.24 121.768 29.24C121.208 30.22 120.398 31 119.338 31.58C118.278 32.14 116.978 32.42 115.438 32.42ZM130.232 32V15.74H124.622V11.99H140.792V15.74H135.092V32H130.232ZM143.64 32V11.99H148.5V32H143.64ZM152.751 32V11.99H156.891L167.181 25.85L165.741 28.85V11.99H170.211V32H166.551L156.081 18.32L157.221 16.13V32H152.751ZM183.37 32.42C181.41 32.42 179.69 32.07 178.21 31.37C176.75 30.67 175.61 29.56 174.79 28.04C173.99 26.5 173.59 24.49 173.59 22.01C173.59 19.57 173.99 17.58 174.79 16.04C175.61 14.5 176.75 13.37 178.21 12.65C179.69 11.91 181.41 11.54 183.37 11.54C184.63 11.54 185.86 11.67 187.06 11.93C188.26 12.19 189.41 12.55 190.51 13.01V17.42C189.31 16.8 188.19 16.3 187.15 15.92C186.13 15.54 185.07 15.35 183.97 15.35C182.83 15.35 181.85 15.55 181.03 15.95C180.23 16.35 179.62 17.04 179.2 18.02C178.78 18.98 178.57 20.3 178.57 21.98C178.57 23.64 178.78 24.96 179.2 25.94C179.64 26.9 180.25 27.59 181.03 28.01C181.81 28.43 182.72 28.64 183.76 28.64C184.3 28.64 184.8 28.61 185.26 28.55C185.74 28.47 186.16 28.34 186.52 28.16V24.62H183.22V20.84H191.38V30.26C190.14 30.94 188.84 31.47 187.48 31.85C186.14 32.23 184.77 32.42 183.37 32.42Z" fill="#483875"/>
<path d="M99.448 60V47.994H102.364V52.854H106.774V47.994H109.672V60H106.774V55.23H102.364V60H99.448ZM117.573 60.252C116.385 60.252 115.353 60.03 114.477 59.586C113.601 59.13 112.917 58.44 112.425 57.516C111.945 56.592 111.705 55.422 111.705 54.006C111.705 51.954 112.221 50.4 113.253 49.344C114.285 48.288 115.725 47.76 117.573 47.76C118.761 47.76 119.793 47.988 120.669 48.444C121.557 48.888 122.241 49.566 122.721 50.478C123.201 51.39 123.441 52.56 123.441 53.988C123.441 56.052 122.925 57.612 121.893 58.668C120.873 59.724 119.433 60.252 117.573 60.252ZM117.573 57.858C118.185 57.858 118.701 57.732 119.121 57.48C119.553 57.228 119.877 56.82 120.093 56.256C120.321 55.68 120.435 54.924 120.435 53.988C120.435 53.04 120.321 52.284 120.093 51.72C119.877 51.156 119.553 50.754 119.121 50.514C118.701 50.262 118.185 50.136 117.573 50.136C116.961 50.136 116.445 50.262 116.025 50.514C115.605 50.766 115.281 51.174 115.053 51.738C114.837 52.302 114.729 53.064 114.729 54.024C114.729 54.972 114.837 55.728 115.053 56.292C115.281 56.844 115.605 57.246 116.025 57.498C116.445 57.738 116.961 57.858 117.573 57.858ZM131.025 60.378C129.177 60.378 127.791 59.988 126.867 59.208C125.955 58.416 125.499 57.186 125.499 55.518V47.994H128.541V55.392C128.541 56.316 128.727 57 129.099 57.444C129.471 57.888 130.065 58.11 130.881 58.11C131.625 58.11 132.201 57.888 132.609 57.444C133.029 57 133.239 56.316 133.239 55.392V47.994H136.011V55.518C136.011 56.634 135.795 57.552 135.363 58.272C134.943 58.98 134.361 59.508 133.617 59.856C132.873 60.204 132.009 60.378 131.025 60.378ZM142.591 60.252C141.979 60.252 141.427 60.222 140.935 60.162C140.443 60.102 139.987 60.012 139.567 59.892C139.147 59.772 138.739 59.616 138.343 59.424V56.652C138.895 57.096 139.519 57.432 140.215 57.66C140.911 57.888 141.571 58.002 142.195 58.002C142.747 58.002 143.167 57.9 143.455 57.696C143.755 57.48 143.905 57.156 143.905 56.724C143.905 56.4 143.767 56.142 143.491 55.95C143.227 55.746 142.873 55.572 142.429 55.428C141.985 55.272 141.487 55.098 140.935 54.906C140.587 54.798 140.245 54.66 139.909 54.492C139.573 54.324 139.273 54.114 139.009 53.862C138.745 53.598 138.535 53.28 138.379 52.908C138.223 52.536 138.145 52.08 138.145 51.54C138.145 51.048 138.235 50.574 138.415 50.118C138.595 49.662 138.871 49.254 139.243 48.894C139.627 48.534 140.113 48.252 140.701 48.048C141.289 47.832 141.979 47.724 142.771 47.724C143.263 47.724 143.695 47.754 144.067 47.814C144.451 47.874 144.817 47.964 145.165 48.084C145.513 48.192 145.867 48.336 146.227 48.516V51.324C145.951 51.096 145.639 50.886 145.291 50.694C144.955 50.49 144.601 50.322 144.229 50.19C143.857 50.058 143.467 49.986 143.059 49.974C142.699 49.962 142.369 49.998 142.069 50.082C141.769 50.166 141.535 50.304 141.367 50.496C141.199 50.676 141.115 50.91 141.115 51.198C141.115 51.534 141.217 51.798 141.421 51.99C141.625 52.182 141.907 52.344 142.267 52.476C142.627 52.596 143.029 52.728 143.473 52.872C143.965 53.016 144.415 53.178 144.823 53.358C145.243 53.526 145.609 53.742 145.921 54.006C146.233 54.27 146.473 54.594 146.641 54.978C146.809 55.362 146.893 55.824 146.893 56.364C146.893 57.084 146.725 57.744 146.389 58.344C146.053 58.932 145.567 59.4 144.931 59.748C144.295 60.084 143.515 60.252 142.591 60.252ZM148.948 60V47.994H157.174V50.244H151.864V52.854H156.472V55.122H151.864V57.75H157.174V60H148.948Z" fill="#F54646"/>
<rect x="63.17" y="53" width="32" height="1" fill="#483875"/>
<rect x="162.17" y="53" width="32" height="1" fill="#483875"/>
</svg>
