<svg width="26" height="21" viewBox="0 0 26 21" fill="none" xmlns="http://www.w3.org/2000/svg">
<path d="M26 2.48586C25.0442 2.90813 24.0155 3.19296 22.9362 3.32043C24.0382 2.66473 24.8832 1.62612 25.2817 0.387121C24.2509 0.995079 23.1099 1.43623 21.8944 1.67438C20.9217 0.644152 19.5352 0 18.001 0C15.0554 0 12.6672 2.37361 12.6672 5.30167C12.6672 5.71659 12.7142 6.12102 12.8055 6.50972C8.37217 6.28835 4.44126 4.17807 1.81028 0.970425C1.35112 1.75306 1.08828 2.66369 1.08828 3.63621C1.08828 5.4753 2.02984 7.09827 3.46118 8.04876C2.58717 8.02096 1.76437 7.78229 1.045 7.3852C1.04448 7.40723 1.04448 7.42979 1.04448 7.45234C1.04448 10.0206 2.88326 12.1628 5.32371 12.6507C4.87615 12.7713 4.40485 12.8364 3.91823 12.8364C3.57412 12.8364 3.24004 12.8033 2.9144 12.7409C3.59365 14.847 5.56332 16.3803 7.89716 16.4227C6.07158 17.8448 3.77204 18.6925 1.27248 18.6925C0.842336 18.6925 0.417474 18.6673 0 18.618C2.36129 20.1229 5.16485 21 8.17689 21C17.9888 21 23.3537 12.9219 23.3537 5.91592C23.3537 5.68617 23.349 5.45694 23.3389 5.22928C24.3808 4.48336 25.2854 3.54913 26 2.48586Z" fill="white"/>
</svg>
