<svg width="17" height="17" viewBox="0 0 17 17" fill="none" xmlns="http://www.w3.org/2000/svg">
<path d="M11.7959 1.38776C12.8081 1.38776 13.7788 1.78983 14.4945 2.50553C15.2102 3.22123 15.6122 4.19193 15.6122 5.20408V11.7959C15.6122 12.8081 15.2102 13.7788 14.4945 14.4945C13.7788 15.2102 12.8081 15.6122 11.7959 15.6122H5.20408C4.19193 15.6122 3.22123 15.2102 2.50553 14.4945C1.78983 13.7788 1.38776 12.8081 1.38776 11.7959V5.20408C1.38776 4.19193 1.78983 3.22123 2.50553 2.50553C3.22123 1.78983 4.19193 1.38776 5.20408 1.38776H11.7959ZM11.7959 0H5.20408C3.82514 0.00411832 2.50385 0.553726 1.52879 1.52879C0.553726 2.50385 0.00411832 3.82514 0 5.20408V11.7959C0.00411832 13.1749 0.553726 14.4961 1.52879 15.4712C2.50385 16.4463 3.82514 16.9959 5.20408 17H11.7959C13.1749 16.9959 14.4961 16.4463 15.4712 15.4712C16.4463 14.4961 16.9959 13.1749 17 11.7959V5.20408C16.9959 3.82514 16.4463 2.50385 15.4712 1.52879C14.4961 0.553726 13.1749 0.00411832 11.7959 0Z" fill="#EF7272"/>
<path d="M13.034 2.94873C12.8374 2.94873 12.6453 3.00703 12.4818 3.11625C12.3183 3.22547 12.1909 3.3807 12.1157 3.56233C12.0405 3.74396 12.0208 3.94381 12.0591 4.13663C12.0975 4.32944 12.1922 4.50655 12.3312 4.64556C12.4702 4.78457 12.6473 4.87924 12.8401 4.91759C13.0329 4.95594 13.2328 4.93626 13.4144 4.86103C13.596 4.7858 13.7513 4.65839 13.8605 4.49494C13.9697 4.33148 14.028 4.1393 14.028 3.94271C14.028 3.81218 14.0023 3.68293 13.9523 3.56233C13.9024 3.44174 13.8292 3.33216 13.7369 3.23986C13.6446 3.14756 13.535 3.07434 13.4144 3.02439C13.2938 2.97444 13.1645 2.94873 13.034 2.94873Z" fill="#EF7272"/>
<path d="M8.5471 5.45905C9.15383 5.45871 9.74703 5.63833 10.2516 5.9752C10.7563 6.31207 11.1496 6.79104 11.382 7.35152C11.6143 7.912 11.6752 8.52881 11.5569 9.1239C11.4386 9.71898 11.1465 10.2656 10.7175 10.6946C10.2885 11.1237 9.74182 11.4158 9.14674 11.5341C8.55165 11.6524 7.93484 11.5915 7.37436 11.3591C6.81388 11.1268 6.33491 10.7334 5.99804 10.2288C5.66117 9.72419 5.48155 9.13099 5.48189 8.52426C5.48327 7.71174 5.80665 6.93289 6.38119 6.35835C6.95573 5.78381 7.73458 5.46043 8.5471 5.45905ZM8.5471 4.0713C7.66634 4.07301 6.80585 4.33578 6.07439 4.82638C5.34292 5.31699 4.7733 6.01342 4.43752 6.82766C4.10174 7.6419 4.01486 8.5374 4.18786 9.401C4.36086 10.2646 4.78599 11.0575 5.4095 11.6796C6.03302 12.3017 6.82695 12.7249 7.69095 12.8959C8.55495 13.0669 9.45025 12.9779 10.2637 12.6403C11.0772 12.3026 11.7723 11.7313 12.2612 10.9987C12.7501 10.2661 13.0108 9.40502 13.0105 8.52426C13.0102 7.93867 12.8946 7.35888 12.67 6.81805C12.4455 6.27721 12.1166 5.78595 11.702 5.37236C11.2875 4.95878 10.7955 4.63098 10.2541 4.40773C9.71274 4.18448 9.13268 4.07016 8.5471 4.0713Z" fill="#EF7272"/>
</svg>
