<svg width="17" height="17" viewBox="0 0 17 17" fill="none" xmlns="http://www.w3.org/2000/svg">
<path d="M8.87607 7.66707V7.64136C8.87073 7.65004 8.86505 7.65872 8.85938 7.66707H8.87607Z" fill="#438FD6"/>
<path d="M15.2861 0H1.21932C0.546039 0 0 0.545498 0 1.2178V15.7825C0 16.4545 0.546039 17 1.21932 17H15.2861C15.9604 17 16.5064 16.4542 16.5064 15.7825V1.2178C16.5064 0.545157 15.96 0 15.2861 0ZM5.00319 14.2312H2.51011V6.55487H5.00319V14.2312ZM3.75682 5.50625H3.74012C2.90386 5.50625 2.36283 4.91666 2.36283 4.1801C2.36283 3.42714 2.92056 2.85396 3.77318 2.85396C4.62614 2.85396 5.1508 3.42714 5.1675 4.1801C5.1675 4.91666 4.62581 5.50625 3.75682 5.50625ZM13.9933 14.2312H11.5002V10.1235C11.5002 9.09198 11.1395 8.38789 10.2375 8.38789C9.54884 8.38789 9.13873 8.86264 8.95805 9.32132C8.89226 9.48504 8.87623 9.71404 8.87623 9.94373V14.2308H6.38315C6.38315 14.2308 6.41588 7.274 6.38315 6.55453H8.87623V7.64108C9.20753 7.11814 9.79999 6.37338 11.1235 6.37338C12.7636 6.37338 13.9936 7.47087 13.9936 9.82888L13.9933 14.2312Z" fill="#438FD6"/>
</svg>
