<svg width="20" height="17" viewBox="0 0 20 17" fill="none" xmlns="http://www.w3.org/2000/svg">
<path d="M20 2.01236C19.2648 2.3542 18.4735 2.58478 17.6433 2.68797C18.491 2.15717 19.1409 1.31638 19.4475 0.313384C18.6546 0.80554 17.7768 1.16266 16.8418 1.35545C16.0936 0.521457 15.0271 0 13.8469 0C11.5811 0 9.74403 1.92149 9.74403 4.29183C9.74403 4.62772 9.78016 4.95511 9.85039 5.26977C6.44013 5.09057 3.41636 3.38225 1.39253 0.785582C1.03932 1.41914 0.83714 2.15632 0.83714 2.9436C0.83714 4.43238 1.56142 5.74622 2.66244 6.51566C1.99013 6.49316 1.35721 6.29994 0.803849 5.97849C0.803443 5.99633 0.803443 6.01459 0.803443 6.03285C0.803443 8.11188 2.21789 9.84611 4.09516 10.241C3.75089 10.3387 3.38834 10.3913 3.01403 10.3913C2.74932 10.3913 2.49234 10.3646 2.24184 10.3141C2.76435 12.019 4.27948 13.2602 6.07474 13.2946C4.67044 14.4458 2.90157 15.132 0.978828 15.132C0.647951 15.132 0.321133 15.1116 0 15.0717C1.81637 16.29 3.97296 17 6.28991 17C13.8376 17 17.9644 10.4606 17.9644 4.78908C17.9644 4.60309 17.9607 4.41752 17.953 4.23323C18.7544 3.62939 19.4503 2.87311 20 2.01236Z" fill="#57CDFF"/>
</svg>
